# xmcd CD database file
#
# Track frame offsets:
#	150
#	13126
#	22218
#	35904
#	49775
#	63866
#	80478
#	91430
#	104140
#	116529
#	128345
#
# Disc length: 1919 seconds
#
# Revision: 1
# Processed by: cddbd v1.5.2PL0 Copyright (c) Steve Scherf et al.
# Submitted via: CDex 1.51
#
DISCID=94077d0b
DTITLE=Don Williams - The Album - CD 1
DYEAR=2004
DGENRE=Country
TTITLE0=Where do we go from here
TTITLE1=In my life
TTITLE2=Peace train
TTITLE3=Crying in the rain
TTITLE4=The long walk from childhood
TTITLE5=Fever
TTITLE6=Always something there to remind me
TTITLE7=Amanda
TTITLE8=Coming apart
TTITLE9=On her way to be a woman
TTITLE10=Games people play
EXTD=YEAR: 2004
EXTT0=
EXTT1=
EXTT2=
EXTT3=
EXTT4=
EXTT5=
EXTT6=
EXTT7=
EXTT8=
EXTT9=
EXTT10=
PLAYORDER=
